<svg width="705" height="1024" viewBox="0 0 705 1024" fill="none" xmlns="http://www.w3.org/2000/svg">
<path fill-rule="evenodd" clip-rule="evenodd" d="M364.825 85.2319C364.825 61.6957 373.146 41.6064 389.789 24.9638C406.432 8.32128 426.521 0 450.057 0C473.593 0 493.682 8.32128 510.325 24.9638C526.968 41.6064 535.289 61.6957 535.289 85.2319C535.289 108.768 526.968 128.857 510.325 145.5C493.682 162.142 473.593 170.464 450.057 170.464C426.521 170.464 406.432 162.142 389.789 145.5C373.146 128.857 364.825 108.768 364.825 85.2319Z" fill="#7D9CAB"/>
<path fill-rule="evenodd" clip-rule="evenodd" d="M364.825 597.841C364.825 574.305 373.146 554.215 389.789 537.573C406.432 520.93 426.521 512.609 450.057 512.609C473.593 512.609 493.682 520.93 510.325 537.573C526.968 554.215 535.289 574.305 535.289 597.841C535.289 621.377 526.968 641.466 510.325 658.109C493.682 674.751 473.593 683.072 450.057 683.072C426.521 683.072 406.432 674.751 389.789 658.109C373.146 641.466 364.825 621.377 364.825 597.841Z" fill="#7D9CAB"/>
<path fill-rule="evenodd" clip-rule="evenodd" d="M620.521 0H705.753V170.464H535.289V85.2319C535.289 38.1596 573.449 0 620.521 0Z" fill="#F8BA90"/>
<path fill-rule="evenodd" clip-rule="evenodd" d="M620.521 512.609H705.753V683.072H535.289V597.841C535.289 550.768 573.449 512.609 620.521 512.609Z" fill="#F8BA90"/>
<path fill-rule="evenodd" clip-rule="evenodd" d="M619.303 340.927C666.375 340.927 704.535 379.087 704.535 426.159V511.391H534.071V426.159C534.071 379.087 572.231 340.927 619.303 340.927Z" fill="#CEEAF7"/>
<path fill-rule="evenodd" clip-rule="evenodd" d="M619.303 853.536C666.375 853.536 704.535 891.696 704.535 938.768V1024H534.071V938.768C534.071 891.696 572.231 853.536 619.303 853.536Z" fill="#CEEAF7"/>
<path fill-rule="evenodd" clip-rule="evenodd" d="M363.608 340.927H448.839C495.912 340.927 534.071 379.087 534.071 426.159V511.391H448.839C401.767 511.391 363.608 473.232 363.608 426.159V340.927Z" fill="#F8BA90"/>
<path fill-rule="evenodd" clip-rule="evenodd" d="M363.608 853.536H448.839C495.912 853.536 534.071 891.696 534.071 938.768V1024H448.839C401.767 1024 363.608 985.84 363.608 938.768V853.536Z" fill="#F8BA90"/>
<path fill-rule="evenodd" clip-rule="evenodd" d="M535.289 170.464H705.753V340.927H620.521C573.449 340.927 535.289 302.768 535.289 255.696V170.464Z" fill="#7D9CAB"/>
<path fill-rule="evenodd" clip-rule="evenodd" d="M535.289 683.073H705.753V853.536H620.521C573.449 853.536 535.289 815.377 535.289 768.304V683.073Z" fill="#7D9CAB"/>
<path fill-rule="evenodd" clip-rule="evenodd" d="M364.825 170.464H535.289V255.696C535.289 302.768 497.129 340.927 450.057 340.927H364.825V170.464Z" fill="#CEEAF7"/>
<path fill-rule="evenodd" clip-rule="evenodd" d="M364.825 683.073H535.289V768.304C535.289 815.377 497.129 853.536 450.057 853.536H364.825V683.073Z" fill="#CEEAF7"/>
<path fill-rule="evenodd" clip-rule="evenodd" d="M171.227 85.2319C171.227 61.6957 179.548 41.6064 196.191 24.9638C212.833 8.32128 232.923 0 256.459 0C279.995 0 300.084 8.32128 316.727 24.9638C333.369 41.6064 341.691 61.6957 341.691 85.2319C341.691 108.768 333.369 128.857 316.727 145.5C300.084 162.142 279.995 170.464 256.459 170.464C232.923 170.464 212.833 162.142 196.191 145.5C179.548 128.857 171.227 108.768 171.227 85.2319Z" fill="#7D9CAB"/>
<path fill-rule="evenodd" clip-rule="evenodd" d="M171.227 597.841C171.227 574.305 179.548 554.215 196.191 537.573C212.833 520.93 232.923 512.609 256.459 512.609C279.995 512.609 300.084 520.93 316.727 537.573C333.369 554.215 341.691 574.305 341.691 597.841C341.691 621.377 333.369 641.466 316.727 658.109C300.084 674.751 279.995 683.072 256.459 683.072C232.923 683.072 212.833 674.751 196.191 658.109C179.548 641.466 171.227 621.377 171.227 597.841Z" fill="#7D9CAB"/>
<path fill-rule="evenodd" clip-rule="evenodd" d="M0.763306 0H85.9952C133.067 0 171.227 38.1596 171.227 85.2319V170.464H0.763306V0Z" fill="#F8BA90"/>
<path fill-rule="evenodd" clip-rule="evenodd" d="M0.763306 512.609H85.9952C133.067 512.609 171.227 550.768 171.227 597.841V683.072H0.763306V512.609Z" fill="#F8BA90"/>
<path fill-rule="evenodd" clip-rule="evenodd" d="M87.2128 340.927C134.285 340.927 172.445 379.087 172.445 426.159V511.391H1.9809V426.159C1.98089 379.087 40.1405 340.927 87.2128 340.927Z" fill="#CEEAF7"/>
<path fill-rule="evenodd" clip-rule="evenodd" d="M87.2128 853.536C134.285 853.536 172.445 891.696 172.445 938.768V1024H1.9809V938.768C1.98089 891.696 40.1405 853.536 87.2128 853.536Z" fill="#CEEAF7"/>
<path fill-rule="evenodd" clip-rule="evenodd" d="M257.677 340.927H342.908V426.159C342.908 473.232 304.749 511.391 257.677 511.391H172.445V426.159C172.445 379.087 210.604 340.927 257.677 340.927Z" fill="#F8BA90"/>
<path fill-rule="evenodd" clip-rule="evenodd" d="M257.677 853.536H342.908V938.768C342.908 985.84 304.749 1024 257.677 1024H172.445V938.768C172.445 891.696 210.604 853.536 257.677 853.536Z" fill="#F8BA90"/>
<path fill-rule="evenodd" clip-rule="evenodd" d="M0.763306 170.464H171.227V255.696C171.227 302.768 133.067 340.927 85.9952 340.927H0.763306V170.464Z" fill="#7D9CAB"/>
<path fill-rule="evenodd" clip-rule="evenodd" d="M0.763306 683.073H171.227V768.304C171.227 815.377 133.067 853.536 85.9952 853.536H0.763306V683.073Z" fill="#7D9CAB"/>
<path fill-rule="evenodd" clip-rule="evenodd" d="M171.227 170.464H341.691V340.927H256.459C209.387 340.927 171.227 302.768 171.227 255.696V170.464Z" fill="#CEEAF7"/>
<path fill-rule="evenodd" clip-rule="evenodd" d="M171.227 683.073H341.691V853.536H256.459C209.387 853.536 171.227 815.377 171.227 768.304V683.073Z" fill="#CEEAF7"/>
</svg>
