<svg width="211" height="54" viewBox="0 0 211 54" fill="none" xmlns="http://www.w3.org/2000/svg">
<path fill-rule="evenodd" clip-rule="evenodd" d="M15.423 36.3047L13.5221 28.6807C12.9972 26.5754 13.2935 24.5929 14.411 22.733C15.5285 20.8732 17.1399 19.6808 19.2452 19.1559L48.7881 11.79C50.8934 11.2651 52.876 11.5614 54.7358 12.6789C56.5957 13.7964 57.788 15.4078 58.3129 17.5131L62.5899 34.6671C63.1148 36.7724 62.8185 38.7549 61.701 40.6148C60.5835 42.4746 58.9721 43.667 56.8668 44.1919L27.3239 51.5578C25.2186 52.0827 23.2361 51.7864 21.3762 50.6689C19.5164 49.5514 18.324 47.94 17.7991 45.8347L15.423 36.3047Z" fill="#CEEAF7"/>
<g style="mix-blend-mode:multiply">
<path fill-rule="evenodd" clip-rule="evenodd" d="M2.65464 25.5904L0.753776 17.9664C0.228865 15.8611 0.525162 13.8786 1.64267 12.0187C2.76017 10.1589 4.37157 8.96651 6.47687 8.4416L36.0197 1.07574C38.125 0.550826 40.1076 0.847123 41.9674 1.96463C43.8273 3.08213 45.0196 4.69353 45.5446 6.79883L49.8215 23.9528C50.3464 26.0581 50.0501 28.0406 48.9326 29.9005C47.8151 31.7603 46.2037 32.9527 44.0984 33.4776L14.5556 40.8435C12.4503 41.3684 10.4677 41.0721 8.60785 39.9546C6.74801 38.8371 5.55564 37.2257 5.03073 35.1204L2.65464 25.5904Z" fill="#F8BA90"/>
</g>
<path d="M79.9843 33.352C78.363 33.352 77.051 32.8293 76.0483 31.784C75.0456 30.7387 74.5443 29.2453 74.5443 27.304V17.672H76.4643V27.048C76.4643 28.5413 76.8163 29.6613 77.5203 30.408C78.2456 31.1547 79.1736 31.528 80.3043 31.528C81.6056 31.528 82.6616 31.1227 83.4723 30.312C84.283 29.5013 84.6883 28.5093 84.6883 27.336V17.672H86.6403V32.968H84.8163L84.7523 30.824C84.3043 31.528 83.6643 32.1253 82.8323 32.616C82.0003 33.1067 81.051 33.352 79.9843 33.352ZM91.7141 33V10.6H105.634V12.456H93.6661V20.584H104.578V22.504H93.6661V31.112H106.018V33H91.7141ZM114.533 33L108.485 17.672H110.501L115.333 30.216L120.037 17.672H121.989L116.165 33H114.533ZM130.947 33.352C129.561 33.352 128.323 33.032 127.235 32.392C126.169 31.7307 125.326 30.8027 124.707 29.608C124.11 28.392 123.811 26.9627 123.811 25.32C123.811 23.72 124.11 22.3227 124.707 21.128C125.326 19.9333 126.169 19.0053 127.235 18.344C128.302 17.6613 129.518 17.32 130.883 17.32C132.27 17.32 133.443 17.672 134.403 18.376C135.385 19.0587 136.131 19.9547 136.643 21.064C137.155 22.152 137.411 23.304 137.411 24.52V25.16H125.763C125.721 27.08 126.169 28.6373 127.107 29.832C128.067 31.0053 129.358 31.592 130.979 31.592C132.174 31.592 133.177 31.2933 133.987 30.696C134.798 30.0773 135.459 29.1707 135.971 27.976L137.571 28.904C136.206 31.8693 133.998 33.352 130.947 33.352ZM125.891 23.496H135.491C135.385 22.664 135.118 21.9067 134.691 21.224C134.286 20.5413 133.753 19.9973 133.091 19.592C132.451 19.1867 131.715 18.984 130.883 18.984C129.582 18.984 128.483 19.3893 127.587 20.2C126.713 20.9893 126.147 22.088 125.891 23.496ZM141.457 33V17.672H143.281L143.345 19.848C143.835 19.1227 144.486 18.5147 145.297 18.024C146.129 17.5333 147.067 17.288 148.113 17.288C149.755 17.288 151.078 17.8107 152.081 18.856C153.083 19.9013 153.585 21.3947 153.585 23.336V33H151.665V23.624C151.665 22.1307 151.302 21.0107 150.577 20.264C149.873 19.5173 148.955 19.144 147.825 19.144C146.971 19.144 146.203 19.336 145.521 19.72C144.859 20.0827 144.337 20.584 143.953 21.224C143.59 21.8427 143.409 22.536 143.409 23.304V33H141.457ZM163.722 33.352C162.356 33.352 161.332 33.064 160.65 32.488C159.967 31.912 159.626 30.8773 159.626 29.384V19.464H156.298V17.672H159.626V12.04H161.546V17.672H166.218V19.464H161.546V29.064C161.546 30.024 161.748 30.6853 162.154 31.048C162.559 31.3893 163.188 31.56 164.042 31.56C164.404 31.56 164.788 31.5067 165.194 31.4C165.599 31.2933 165.94 31.176 166.218 31.048V32.936C165.919 33.0427 165.535 33.1387 165.066 33.224C164.596 33.3093 164.148 33.352 163.722 33.352Z" fill="#406678"/>
</svg>
