<svg width="63" height="52" viewBox="0 0 63 52" fill="none" xmlns="http://www.w3.org/2000/svg">
<path fill-rule="evenodd" clip-rule="evenodd" d="M15.423 36.3047L13.5221 28.6807C12.9972 26.5754 13.2935 24.5929 14.411 22.733C15.5285 20.8732 17.1399 19.6808 19.2452 19.1559L48.7881 11.79C50.8934 11.2651 52.876 11.5614 54.7358 12.6789C56.5957 13.7964 57.788 15.4078 58.3129 17.5131L62.5899 34.6671C63.1148 36.7724 62.8185 38.7549 61.701 40.6148C60.5835 42.4746 58.9721 43.667 56.8668 44.1919L27.3239 51.5578C25.2186 52.0827 23.2361 51.7864 21.3762 50.6689C19.5164 49.5514 18.324 47.94 17.7991 45.8347L15.423 36.3047Z" fill="#CEEAF7"/>
<g style="mix-blend-mode:multiply">
<path fill-rule="evenodd" clip-rule="evenodd" d="M2.65464 25.5904L0.753776 17.9664C0.228865 15.8611 0.525162 13.8786 1.64267 12.0187C2.76017 10.1589 4.37157 8.96651 6.47687 8.4416L36.0197 1.07574C38.125 0.550826 40.1076 0.847123 41.9674 1.96463C43.8273 3.08213 45.0196 4.69353 45.5446 6.79883L49.8215 23.9528C50.3464 26.0581 50.0501 28.0406 48.9326 29.9005C47.8151 31.7603 46.2037 32.9527 44.0984 33.4776L14.5556 40.8435C12.4503 41.3684 10.4677 41.0721 8.60785 39.9546C6.74801 38.8371 5.55564 37.2257 5.03073 35.1204L2.65464 25.5904Z" fill="#F8BA90"/>
</g>
</svg>
